<?xml version="1.0" encoding="utf-8"?>
<!-- Generator: Adobe Illustrator 23.0.1, SVG Export Plug-In . SVG Version: 6.00 Build 0)  -->
<svg version="1.1" id="图层_1" xmlns="http://www.w3.org/2000/svg" xmlns:xlink="http://www.w3.org/1999/xlink" x="0px" y="0px"
	 width="19px" height="19px" viewBox="0 0 19 19" style="enable-background:new 0 0 19 19;" xml:space="preserve">
<style type="text/css">
	.st0{fill:#FFFFFF;opacity:0.3;}
</style>
<g>
	<path class="st0" d="M1,2v15h17V2H1z M6,3h1v1H6V3z M4,3h1v1H4V3z M2,3h1v1H2V3z M17,16H2V5h15V16z"/>
</g>
<g>
	<path class="st0" d="M3.5,11v-0.7l4.3-1.9v0.8l-3.4,1.5l3.4,1.5V13L3.5,11z"/>
	<path class="st0" d="M8.3,14l1.9-7h0.6l-1.9,7H8.3z"/>
	<path class="st0" d="M15.5,11l-4.3,1.9V12l3.4-1.5l-3.4-1.5V8.4l4.3,1.9V11z"/>
</g>
</svg>
