<?xml version="1.0" encoding="utf-8"?>
<!-- Generator: Adobe Illustrator 24.0.0, SVG Export Plug-In . SVG Version: 6.00 Build 0)  -->
<svg version="1.1" id="图层_1" xmlns="http://www.w3.org/2000/svg" xmlns:xlink="http://www.w3.org/1999/xlink" x="0px" y="0px"
	 viewBox="0 0 19 19" style="enable-background:new 0 0 19 19;" xml:space="preserve">
<style type="text/css">
	.st0{opacity:0.25;}
	.st1{fill:#FFFFFF;}
</style>
<g class="st0">
	<path class="st1" d="M16.9,1H3.1C1.9,1,1,1.9,1,3v1v1v11c0,1.1,0.9,2,2,2h14c1.1,0,2-0.9,2-2V5V4V3C19,1.9,18.1,1,16.9,1z M18,16
		c0,0.6-0.4,1-1,1H3c-0.6,0-1-0.4-1-1V5h16V16z M2,4V3c0-0.6,0.5-1,1.1-1h13.8C17.5,2,18,2.4,18,3v1H2z"/>
	<polygon class="st1" points="5.3,13.9 8.8,11 5.3,8.1 4.7,8.9 7.2,11 4.7,13.1 	"/>
	<rect x="9" y="14" class="st1" width="4" height="1"/>
</g>
</svg>
