<?xml version="1.0" encoding="utf-8"?>
<!-- Generator: Adobe Illustrator 23.0.1, SVG Export Plug-In . SVG Version: 6.00 Build 0)  -->
<svg version="1.1" id="图层_1" xmlns="http://www.w3.org/2000/svg" xmlns:xlink="http://www.w3.org/1999/xlink" x="0px" y="0px"
	 viewBox="0 0 19 19" style="enable-background:new 0 0 19 19;" xml:space="preserve">
<style type="text/css">
	.st0{fill:#FFFFFF;}
	.st1{fill:none;stroke:#FFFFFF;stroke-miterlimit:10;}
</style>
<g>
	<path class="st0" d="M16.9,2C17.5,2,18,2.4,18,3v1H2V3c0-0.6,0.5-1,1.1-1H16.9 M16.9,1H3.1C1.9,1,1,1.9,1,3v2h18V3
		C19,1.9,18.1,1,16.9,1L16.9,1z"/>
</g>
<g>
	<path class="st0" d="M18,5v11c0,0.6-0.4,1-1,1H3c-0.6,0-1-0.4-1-1V5H18 M19,4H1v12c0,1.1,0.9,2,2,2h14c1.1,0,2-0.9,2-2V4L19,4z"/>
</g>
<polyline class="st1" points="5,13.5 8,11 5,8.5 "/>
<line class="st1" x1="9" y1="14.5" x2="13" y2="14.5"/>
</svg>
