<?xml version="1.0" encoding="utf-8"?>
<!-- Generator: Adobe Illustrator 21.0.0, SVG Export Plug-In . SVG Version: 6.00 Build 0)  -->
<svg version="1.1" id="放大" xmlns="http://www.w3.org/2000/svg" xmlns:xlink="http://www.w3.org/1999/xlink" x="0px" y="0px"
	 viewBox="0 0 19 19" style="enable-background:new 0 0 19 19;" xml:space="preserve">
<style type="text/css">
	.st0{fill:#FFFFFF;opacity:0.3;}
</style>
<title>画板 1</title>
<circle class="st0" cx="4.5" cy="7.5" r="1.5"/>
<path class="st0" d="M14,3c-1.1-0.1-2.2,0.3-3,1H8C7.2,3.3,6.1,2.9,5,3C2.8,3,0,6,0,9c0,4,0.8,7,2.5,7C4.6,16,7,12,7,12h5
	c0,0,2.6,4,4.5,4S19,12,19,9S16.2,3,14,3z M4.5,10C3.1,10,2,8.9,2,7.5S3.1,5,4.5,5S7,6.1,7,7.5S5.9,10,4.5,10z M14,8h-2V7h2V8z
	 M15,10h-1V8h1V10z M15,7h-1V5h1V7z M17,8h-2V7h2V8z"/>
</svg>
