<?xml version="1.0" encoding="utf-8"?>
<!-- Generator: Adobe Illustrator 24.0.0, SVG Export Plug-In . SVG Version: 6.00 Build 0)  -->
<svg version="1.1" id="图层_6" xmlns="http://www.w3.org/2000/svg" xmlns:xlink="http://www.w3.org/1999/xlink" x="0px" y="0px"
	 viewBox="0 0 19 19" style="enable-background:new 0 0 19 19;" xml:space="preserve">
<style type="text/css">
	.st0{fill:#FFFFFF;}
</style>
<g>
	<path class="st0" d="M16,2H3C1.9,2,1,2.9,1,4v11c0,1.1,0.9,2,2,2h13c1.1,0,2-0.9,2-2V4C18,2.9,17.1,2,16,2z M13.5,4
		C14.4,4,15,4.6,15,5.5S14.4,7,13.5,7S12,6.4,12,5.5S12.6,4,13.5,4z M16,15H3v-1l4-8l4,6l2-4l3,6V15z"/>
</g>
</svg>
