<?xml version="1.0" encoding="utf-8"?>
<!-- Generator: Adobe Illustrator 24.0.0, SVG Export Plug-In . SVG Version: 6.00 Build 0)  -->
<svg version="1.1" id="图层_1" xmlns="http://www.w3.org/2000/svg" xmlns:xlink="http://www.w3.org/1999/xlink" x="0px" y="0px"
	 viewBox="0 0 12 12" style="enable-background:new 0 0 12 12;" xml:space="preserve">
<style type="text/css">
	.st0{fill:#607D8B;}
	.st1{opacity:0.3;}
	.st2{fill:url(#SVGID_1_);}
	.st3{opacity:0.5;fill:#FDEFBA;enable-background:new    ;}
</style>
<title>画板 1</title>
<g id="锁-小">
	<g id="_32-3">
		<g id="_512">
			<g>
				<path class="st0" d="M10,7H8.6V6H9V4c0-1.6-1.4-3-3-3C4.3,1,3,2.3,3,4v2h0.4v1H2V4c0-2.2,1.8-4,4-4c2.2,0,4,1.8,4,4V7z"/>
			</g>
			<path class="st1" d="M1,4h10c0.6,0,1,0.4,1,1v5c0,1.1-0.9,2-2,2H2c-1.1,0-2-0.9-2-2V5C0,4.4,0.4,4,1,4z"/>
			
				<linearGradient id="SVGID_1_" gradientUnits="userSpaceOnUse" x1="6" y1="113.0986" x2="6" y2="120" gradientTransform="matrix(1 0 0 -1 0 124)">
				<stop  offset="0" style="stop-color:#F5A816"/>
				<stop  offset="0.67" style="stop-color:#F9CE4B"/>
				<stop  offset="1" style="stop-color:#FADD60"/>
			</linearGradient>
			<path class="st2" d="M2,4h8c0.6,0,1,0.4,1,1v5c0,0.6-0.4,1-1,1H2c-0.6,0-1-0.4-1-1V5C1,4.4,1.4,4,2,4z"/>
			<rect x="2" y="4" class="st3" width="1" height="7"/>
			<rect x="9" y="4" class="st3" width="1" height="7"/>
		</g>
	</g>
</g>
</svg>
