<?xml version="1.0" encoding="utf-8"?>
<!-- Generator: Adobe Illustrator 23.0.1, SVG Export Plug-In . SVG Version: 6.00 Build 0)  -->
<svg version="1.1" id="图层_1" xmlns="http://www.w3.org/2000/svg" xmlns:xlink="http://www.w3.org/1999/xlink" x="0px" y="0px"
	 width="16px" height="16px" viewBox="0 0 16 16" style="enable-background:new 0 0 16 16;" xml:space="preserve">
<style type="text/css">
	.st0{fill:#FFFFFF;}
</style>
<title>画板 1</title>
<path class="st0" d="M13,6c0-2.8-2.2-5-5-5S3,3.2,3,6C2.4,6,2,6.4,2,7v6c0,0.6,0.4,1,1,1h10c0.6,0,1-0.4,1-1V7C14,6.4,13.6,6,13,6z
	 M9,10.7V12c0,0.6-0.4,1-1,1s-1-0.4-1-1v-1.3c-0.6-0.3-1-1-1-1.7c0-1.1,0.9-2,2-2s2,0.9,2,2C10,9.7,9.6,10.4,9,10.7z M5,6
	c0-1.7,1.3-3,3-3s3,1.3,3,3H5z"/>
</svg>
