<?xml version="1.0" encoding="utf-8"?>
<!-- Generator: Adobe Illustrator 23.0.1, SVG Export Plug-In . SVG Version: 6.00 Build 0)  -->
<svg version="1.1" id="图层_1" xmlns="http://www.w3.org/2000/svg" xmlns:xlink="http://www.w3.org/1999/xlink" x="0px" y="0px"
	 viewBox="0 0 19 19" style="enable-background:new 0 0 19 19;" xml:space="preserve">
<style type="text/css">
	.st0{fill:#FFFFFF;}
</style>
<g>
	<path class="st0" d="M9.5,0C4.3,0,0,4.3,0,9.5S4.3,19,9.5,19S19,14.7,19,9.5S14.7,0,9.5,0z M4.5,11C3.7,11,3,10.3,3,9.5
		S3.7,8,4.5,8S6,8.7,6,9.5S5.3,11,4.5,11z M9.5,11C8.7,11,8,10.3,8,9.5S8.7,8,9.5,8S11,8.7,11,9.5S10.3,11,9.5,11z M14.5,11
		c-0.8,0-1.5-0.7-1.5-1.5S13.7,8,14.5,8S16,8.7,16,9.5S15.3,11,14.5,11z"/>
</g>
</svg>
