<?xml version="1.0" encoding="utf-8"?>
<!-- Generator: Adobe Illustrator 23.0.1, SVG Export Plug-In . SVG Version: 6.00 Build 0)  -->
<svg version="1.1" id="图层_19" xmlns="http://www.w3.org/2000/svg" xmlns:xlink="http://www.w3.org/1999/xlink" x="0px" y="0px"
	 width="19px" height="19px" viewBox="0 0 19 19" style="enable-background:new 0 0 19 19;" xml:space="preserve">
<style type="text/css">
	.st0{fill:#FFFFFF;}
</style>
<title>画板 1</title>
<g>
	<path class="st0" d="M10.5,1C6.3,1,2.9,4,2.1,8H0l3,4l3-4H4.2c0.7-2.8,3.3-5,6.3-5C14,3,17,6,17,9.5S14,16,10.5,16
		c-1.9,0-3.6-0.8-5-2.3l-1.5,1.3C5.7,17,8,18,10.5,18c4.7,0,8.5-3.8,8.5-8.5C19,4.8,15.2,1,10.5,1z"/>
	<polygon class="st0" points="10,5 10,10 11,10 15,10 15,9 11,9 11,5 	"/>
</g>
</svg>
