<?xml version="1.0" encoding="utf-8"?>
<!-- Generator: Adobe Illustrator 23.0.1, SVG Export Plug-In . SVG Version: 6.00 Build 0)  -->
<svg version="1.1" id="放大" xmlns="http://www.w3.org/2000/svg" xmlns:xlink="http://www.w3.org/1999/xlink" x="0px" y="0px"
	 width="19px" height="19px" viewBox="0 0 19 19" style="enable-background:new 0 0 19 19;" xml:space="preserve">
<style type="text/css">
	.st0{fill:#FFFFFF;opacity:0.3;}
</style>
<title>画板 1</title>
<path class="st0" d="M17.3,5.3l-3.1,3.1c-0.8,0.8-2,0.8-2.8,0l-0.7-0.7c-0.8-0.8-0.8-2,0-2.8l3.1-3.1c-2.9-0.9-6,0.7-6.9,3.5
	C6.4,6.8,6.7,8.4,7.4,9.7l-5.9,5.9l2.1,2.1l5.9-5.9c0.3,0.2,0.6,0.3,0.9,0.4c2.9,0.9,6-0.7,6.9-3.5C17.7,7.6,17.7,6.4,17.3,5.3z"/>
</svg>
