<?xml version="1.0" encoding="utf-8"?>
<!-- Generator: Adobe Illustrator 21.0.0, SVG Export Plug-In . SVG Version: 6.00 Build 0)  -->
<svg version="1.1" id="图层_5" xmlns="http://www.w3.org/2000/svg" xmlns:xlink="http://www.w3.org/1999/xlink" x="0px" y="0px"
	 viewBox="0 0 19 19" style="enable-background:new 0 0 19 19;" xml:space="preserve">
<style type="text/css">
	.st0{fill:#8b8b8b;}
</style>
<title>画板 1</title>
<rect x="1" y="1" class="st0" width="1" height="17"/>
<rect x="3" y="1" class="st0" width="1" height="17"/>
<rect x="15" y="1" class="st0" width="1" height="17"/>
<rect x="17" y="1" class="st0" width="1" height="17"/>
<rect x="1" y="3" class="st0" width="3" height="1"/>
<rect x="15" y="3" class="st0" width="3" height="1"/>
<rect x="15" y="6" class="st0" width="3" height="1"/>
<rect x="1" y="6" class="st0" width="3" height="1"/>
<rect x="15" y="9" class="st0" width="3" height="1"/>
<rect x="1" y="9" class="st0" width="3" height="1"/>
<rect x="1" y="12" class="st0" width="3" height="1"/>
<rect x="15" y="12" class="st0" width="3" height="1"/>
<rect x="15" y="15" class="st0" width="3" height="1"/>
<rect x="1" y="15" class="st0" width="3" height="1"/>
<rect x="6" y="1" class="st0" width="7" height="6"/>
<rect x="6" y="12" class="st0" width="7" height="6"/>
<rect x="4" y="9" class="st0" width="11" height="1"/>
</svg>
