<?xml version="1.0" encoding="utf-8"?>
<!-- Generator: Adobe Illustrator 23.0.1, SVG Export Plug-In . SVG Version: 6.00 Build 0)  -->
<svg version="1.1" id="图层_5" xmlns="http://www.w3.org/2000/svg" xmlns:xlink="http://www.w3.org/1999/xlink" x="0px" y="0px"
	 width="19px" height="19px" viewBox="0 0 19 19" style="enable-background:new 0 0 19 19;" xml:space="preserve">
<style type="text/css">
	.st0{fill:#8b8b8b;}
</style>
<title>画板 1</title>
<g>
	<path class="st0" d="M17,1v2h-1V1h-1v2v1v2v1v2H4V7V6V4V3V1H3v2H2V1H1v2v1v2v1v2v1v2v1v2v1v2h1v-2h1v2h1v-2v-1v-2v-1v-2h11v2v1v2v1
		v2h1v-2h1v2h1v-2v-1v-2v-1v-2V9V7V6V4V3V1H17z M2,4h1v2H2V4z M2,7h1v2H2V7z M3,15H2v-2h1V15z M3,12H2v-2h1V12z M17,15h-1v-2h1V15z
		 M17,12h-1v-2h1V12z M17,9h-1V7h1V9z M17,6h-1V4h1V6z"/>
	<rect x="6" y="1" class="st0" width="7" height="6"/>
	<rect x="6" y="12" class="st0" width="7" height="6"/>
</g>
</svg>
