<?xml version="1.0" encoding="utf-8"?>
<!-- Generator: Adobe Illustrator 23.0.1, SVG Export Plug-In . SVG Version: 6.00 Build 0)  -->
<svg version="1.1" id="图层_5" xmlns="http://www.w3.org/2000/svg" xmlns:xlink="http://www.w3.org/1999/xlink" x="0px" y="0px"
	 viewBox="0 0 19 19" style="enable-background:new 0 0 19 19;" xml:space="preserve">
<style type="text/css">
	.st0{fill:#FFFFFF;}
	.st1{fill:none;stroke:#FFFFFF;stroke-miterlimit:10;}
</style>
<title>画板 1</title>
<g>
	<path class="st0" d="M16,3c0.6,0,1,0.4,1,1v12c0,0.6-0.4,1-1,1H4c-0.6,0-1-0.4-1-1V4c0-0.6,0.4-1,1-1H16 M16,2H4C2.9,2,2,2.9,2,4
		v12c0,1.1,0.9,2,2,2h12c1.1,0,2-0.9,2-2V4C18,2.9,17.1,2,16,2L16,2z"/>
</g>
<line class="st1" x1="5.5" y1="2" x2="5.5" y2="18"/>
<line class="st1" x1="14.5" y1="2" x2="14.5" y2="18"/>
<line class="st1" x1="14.5" y1="14.5" x2="18" y2="14.5"/>
<line class="st1" x1="2" y1="14.5" x2="5.5" y2="14.5"/>
<line class="st1" x1="14.5" y1="5.5" x2="18" y2="5.5"/>
<line class="st1" x1="2" y1="5.5" x2="5.5" y2="5.5"/>
<line class="st1" x1="14.5" y1="8.5" x2="18" y2="8.5"/>
<line class="st1" x1="2" y1="8.5" x2="5.5" y2="8.5"/>
<line class="st1" x1="14.5" y1="11.5" x2="18" y2="11.5"/>
<line class="st1" x1="2" y1="11.5" x2="5.5" y2="11.5"/>
<g>
	<path class="st0" d="M11.8,9.3l-2.1-2C9.1,6.7,8,7.1,8,8v4c0,0.9,1.1,1.3,1.7,0.7l2.1-2C12.2,10.3,12.2,9.7,11.8,9.3z"/>
</g>
</svg>
