<?xml version="1.0" encoding="utf-8"?>
<!-- Generator: Adobe Illustrator 23.0.1, SVG Export Plug-In . SVG Version: 6.00 Build 0)  -->
<svg version="1.1" id="图层_5" xmlns="http://www.w3.org/2000/svg" xmlns:xlink="http://www.w3.org/1999/xlink" x="0px" y="0px"
	 viewBox="0 0 19 19" style="enable-background:new 0 0 19 19;" xml:space="preserve">
<style type="text/css">
	.st0{fill:#FFFFFF;}
</style>
<title>画板 1</title>
<path class="st0" d="M9.5,6.2c1.9,0,3.3,1.4,3.3,3.3s-1.4,3.3-3.3,3.3s-3.3-1.4-3.3-3.3S7.6,6.2,9.5,6.2 M9.5,5.7
	c-2.1,0-3.8,1.7-3.8,3.8s1.7,3.8,3.8,3.8s3.8-1.7,3.8-3.8S11.6,5.7,9.5,5.7z"/>
<path class="st0" d="M17,8.1c-0.2-1.1-0.5-2-1.2-2.9L17,4.1l-2-2l-1.3,1.2c-0.8-0.5-1.8-1-2.9-1.2V0.5H8.1V2c-1.1,0.3-2,0.6-2.9,1.3
	L4.1,2.1l-2,2l1.2,1.2c-0.5,0.8-1,1.8-1.2,2.9H0.5V11H2c0.2,1.1,0.5,2,1.2,2.9L2,15l2,2l1.3-1.2c0.8,0.5,1.8,1,2.9,1.2v1.5H11V17
	c1.1-0.2,2-0.5,2.9-1.2L15,17l2-2l-1.2-1.3c0.5-0.8,1-1.8,1.2-2.9h1.5V8.1H17z M9.5,16.2c-3.7,0-6.7-3-6.7-6.7s3-6.7,6.7-6.7
	s6.7,3,6.7,6.7S13.2,16.2,9.5,16.2z"/>
</svg>
