<?xml version="1.0" encoding="utf-8"?>
<!-- Generator: Adobe Illustrator 24.0.0, SVG Export Plug-In . SVG Version: 6.00 Build 0)  -->
<svg version="1.1" id="其他" xmlns="http://www.w3.org/2000/svg" xmlns:xlink="http://www.w3.org/1999/xlink" x="0px" y="0px"
	 viewBox="0 0 16 16" style="enable-background:new 0 0 16 16;" xml:space="preserve">
<style type="text/css">
	.st0{fill:#FFFFFF;}
</style>
<g>
	<path class="st0" d="M16,10V3c0-1.1-0.9-2-2-2H2C0.9,1,0,1.9,0,3v7c0,1.1,0.9,2,2,2h5v2H3v1h10v-1H9v-2h5C15.1,12,16,11.1,16,10z
		 M1,10V3c0-0.6,0.4-1,1-1h12c0.6,0,1,0.4,1,1v7c0,0.6-0.4,1-1,1H2C1.4,11,1,10.6,1,10z"/>
	<path class="st0" d="M11,6h-1V5.4C10,3.9,9.2,3,8,3S6,3.9,6,5.4V6H5v4h6V6z M7,5.4C7,4.5,7.3,4,8,4s1,0.5,1,1.4V6H7V5.4z M10,9H6V7
		h4V9z"/>
</g>
</svg>
