<?xml version="1.0" encoding="utf-8"?>
<!-- Generator: Adobe Illustrator 24.0.0, SVG Export Plug-In . SVG Version: 6.00 Build 0)  -->
<svg version="1.1" id="缩放" xmlns="http://www.w3.org/2000/svg" xmlns:xlink="http://www.w3.org/1999/xlink" x="0px" y="0px"
	 viewBox="0 0 16 16" style="enable-background:new 0 0 16 16;" xml:space="preserve">
<style type="text/css">
	.st0{fill:#FFFFFF;}
</style>
<g>
	<path class="st0" d="M15.5,6C15.2,6,15,5.8,15,5.5V1h-4.5C10.2,1,10,0.8,10,0.5S10.2,0,10.5,0H16v5.5C16,5.8,15.8,6,15.5,6z"/>
</g>
<g>
	<path class="st0" d="M5.5,16H0v-5.5C0,10.2,0.2,10,0.5,10S1,10.2,1,10.5V15h4.5C5.8,15,6,15.2,6,15.5S5.8,16,5.5,16z"/>
</g>
<g>
	<rect x="3" y="12" class="st0" width="1" height="1"/>
</g>
<g>
	<rect x="6" y="9" class="st0" width="1" height="1"/>
</g>
<g>
	<rect x="9" y="6" class="st0" width="1" height="1"/>
</g>
<g>
	<rect x="12" y="3" class="st0" width="1" height="1"/>
</g>
</svg>
