<svg id="图层_2" data-name="图层 2" xmlns="http://www.w3.org/2000/svg" viewBox="0 0 19 19"><defs><style>.cls-1{fill:#fff;}</style></defs><title>垃圾桶</title><path class="cls-1" d="M16.52,3H13V1.47A.47.47,0,0,0,12.55,1h-7A.48.48,0,0,0,5,1.41v.06H5V3H1.4a.54.54,0,0,0-.4.5c0,.27.15.5.4.5H2V18.54a.48.48,0,0,0,.46.46H15.53a.47.47,0,0,0,.47-.46V4h.53A.51.51,0,0,0,17,3.5.5.5,0,0,0,16.52,3ZM6,2h6V3H6Zm9,16H3V4H15Z"/><path class="cls-1" d="M8.22,13.14H6l1.09-1.91A.44.44,0,0,0,7,10.64a.43.43,0,0,0-.58.13h0L5.11,12.91a.72.72,0,0,0,.21,1h0a.7.7,0,0,0,.37.11H8.22a.43.43,0,1,0,0-.86Zm2.24-3.07a.42.42,0,0,0,.42-.42h0a.46.46,0,0,0-.06-.23L9.6,7.34a.68.68,0,0,0-.94-.27l-.06,0a.84.84,0,0,0-.23.23L7.19,9.41a.45.45,0,0,0,.14.6.42.42,0,0,0,.58-.15h0L9,8l1.1,1.86A.41.41,0,0,0,10.46,10.07Zm.59.57a.43.43,0,0,0-.14.59h0L12,13.14H9.79a.43.43,0,0,0,0,.86h2.52a.7.7,0,0,0,.69-.71h0a.65.65,0,0,0-.1-.36l-1.27-2.15a.4.4,0,0,0-.54-.16l0,0Z"/></svg>