<?xml version="1.0" encoding="utf-8"?>
<!-- Generator: Adobe Illustrator 24.0.0, SVG Export Plug-In . SVG Version: 6.00 Build 0)  -->
<svg version="1.1" id="图层_4" xmlns="http://www.w3.org/2000/svg" xmlns:xlink="http://www.w3.org/1999/xlink" x="0px" y="0px"
	 viewBox="0 0 19 19" style="enable-background:new 0 0 19 19;" xml:space="preserve">
<style type="text/css">
	.st0{fill:#FFFFFF;}
</style>
<title>画板 1</title>
<path class="st0" d="M17,1H2C0.9,1,0,1.9,0,3v9c0,1.1,0.9,2,2,2h7v2H6c-1.1,0-2,0.9-2,2h11c0-1.1-0.9-2-2-2h-3v-2h7c1.1,0,2-0.9,2-2
	V3C19,1.9,18.1,1,17,1z M18,12c0,0.6-0.4,1-1,1H2c-0.6,0-1-0.4-1-1V3c0-0.6,0.4-1,1-1h15c0.6,0,1,0.4,1,1V12z"/>
</svg>
