<?xml version="1.0" encoding="utf-8"?>
<!-- Generator: Adobe Illustrator 21.0.0, SVG Export Plug-In . SVG Version: 6.00 Build 0)  -->
<svg version="1.1" id="图层_5" xmlns="http://www.w3.org/2000/svg" xmlns:xlink="http://www.w3.org/1999/xlink" x="0px" y="0px"
	 viewBox="0 0 19 19" style="enable-background:new 0 0 19 19;" xml:space="preserve">
<style type="text/css">
	.st0{fill:#FFFFFF;}
</style>
<title>画板 1</title>
<path class="st0" d="M9.5,6.5c1.7,0,3,1.3,3,3s-1.3,3-3,3s-3-1.3-3-3S7.8,6.5,9.5,6.5 M9.5,5.5c-2.2,0-4,1.8-4,4s1.8,4,4,4
	s4-1.8,4-4S11.7,5.5,9.5,5.5z"/>
<path class="st0" d="M17.4,8c-0.2-1.1-0.6-2.1-1.2-3l1.2-1.2l-2.1-2.1L14,2.9c-0.9-0.6-1.9-1-3-1.2V0H8v1.6C6.9,1.9,5.9,2.3,5,2.9
	L3.8,1.7L1.7,3.8L2.9,5c-0.6,0.9-1,1.9-1.2,3H0v3h1.6c0.2,1.1,0.6,2.1,1.2,3l-1.2,1.2l2.1,2.1L5,16.1c0.9,0.6,1.9,1,3,1.2V19h3v-1.6
	c1.1-0.2,2.1-0.6,3-1.2l1.2,1.2l2.1-2.1L16.1,14c0.6-0.9,1-1.9,1.2-3H19V8H17.4z M9.5,15.5c-3.3,0-6-2.7-6-6s2.7-6,6-6s6,2.7,6,6
	S12.8,15.5,9.5,15.5z"/>
</svg>
