<?xml version="1.0" encoding="utf-8"?>
<!-- Generator: Adobe Illustrator 23.0.1, SVG Export Plug-In . SVG Version: 6.00 Build 0)  -->
<svg version="1.1" id="其他" xmlns="http://www.w3.org/2000/svg" xmlns:xlink="http://www.w3.org/1999/xlink" x="0px" y="0px"
	 width="16px" height="16px" viewBox="0 0 16 16" style="enable-background:new 0 0 16 16;" xml:space="preserve">
<style type="text/css">
	.st0{fill:#FFFFFF;}
</style>
<g>
	<path class="st0" d="M16,12V1H0v11h7v2H3v1h10v-1H9v-2H16z M8,11H7H1V2h14v9H9H8z"/>
	<path class="st0" d="M11,6h-1V5.4C10,3.9,9.2,3,8,3S6,3.9,6,5.4V6H5v4h6V6z M7,5.4C7,4.5,7.3,4,8,4s1,0.5,1,1.4V6H7V5.4z M10,9H6V7
		h4V9z"/>
</g>
</svg>
