<?xml version="1.0" encoding="utf-8"?>
<!-- Generator: Adobe Illustrator 24.0.0, SVG Export Plug-In . SVG Version: 6.00 Build 0)  -->
<svg version="1.1" id="缩放" xmlns="http://www.w3.org/2000/svg" xmlns:xlink="http://www.w3.org/1999/xlink" x="0px" y="0px"
	 viewBox="0 0 16 16" style="enable-background:new 0 0 16 16;" xml:space="preserve">
<style type="text/css">
	.st0{fill:#FFFFFF;}
</style>
<title>画板 1</title>
<g>
	<path class="st0" d="M14.5,7H9V1.5C9,1.2,9.2,1,9.5,1S10,1.2,10,1.5V6h4.5C14.8,6,15,6.2,15,6.5S14.8,7,14.5,7z"/>
</g>
<g>
	<path class="st0" d="M6.5,15C6.2,15,6,14.8,6,14.5V10H1.5C1.2,10,1,9.8,1,9.5S1.2,9,1.5,9H7v5.5C7,14.8,6.8,15,6.5,15z"/>
</g>
<g>
	<rect x="3" y="12" class="st0" width="1" height="1"/>
</g>
<g>
	<rect y="15" class="st0" width="1" height="1"/>
</g>
<g>
	<rect x="15" class="st0" width="1" height="1"/>
</g>
<g>
	<rect x="12" y="3" class="st0" width="1" height="1"/>
</g>
</svg>
