<?xml version="1.0" encoding="utf-8"?>
<!-- Generator: Adobe Illustrator 23.0.1, SVG Export Plug-In . SVG Version: 6.00 Build 0)  -->
<svg version="1.1" id="图层_5" xmlns="http://www.w3.org/2000/svg" xmlns:xlink="http://www.w3.org/1999/xlink" x="0px" y="0px"
	 width="16px" height="16px" viewBox="0 0 16 16" style="enable-background:new 0 0 16 16;" xml:space="preserve">
<style type="text/css">
	.st0{fill:#FFFFFF;}
</style>
<path class="st0" d="M8,5.5c1.5,0,2.5,1.1,2.5,2.5S9.4,10.5,8,10.5S5.5,9.5,5.5,8S6.5,5.5,8,5.5 M8,4.7C6.2,4.7,4.7,6.2,4.7,8
	s1.5,3.3,3.3,3.3s3.3-1.5,3.3-3.3S9.8,4.7,8,4.7z"/>
<path class="st0" d="M14.6,6.7c-0.1-0.9-0.5-1.7-1-2.5l1-1l-1.7-1.7l-1.1,1C11,2,10.2,1.7,9.3,1.5V0H6.7v1.4C5.8,1.6,5,1.9,4.2,2.5
	l-1-1L1.5,3.2l1,1c-0.6,0.7-0.9,1.6-1,2.5H0v2.5h1.4c0.1,0.9,0.5,1.7,1,2.5l-1,1l1.7,1.7l1.1-1c0.8,0.5,1.6,0.8,2.5,1V16h2.5v-1.4
	c0.9-0.1,1.7-0.5,2.5-1l1,1l1.7-1.7l-1-1.1c0.5-0.8,0.8-1.6,1-2.5H16V6.7H14.6z M8,13c-2.7,0-5-2.3-5-5s2.3-5,5-5s5,2.3,5,5
	S10.7,13,8,13z"/>
</svg>
