<?xml version="1.0" encoding="utf-8"?>
<!-- Generator: Adobe Illustrator 24.0.0, SVG Export Plug-In . SVG Version: 6.00 Build 0)  -->
<svg version="1.1" id="图层_6" xmlns="http://www.w3.org/2000/svg" xmlns:xlink="http://www.w3.org/1999/xlink" x="0px" y="0px"
	 viewBox="0 0 19 19" style="enable-background:new 0 0 19 19;" xml:space="preserve">
<style type="text/css">
	.st0{fill:#FFFFFF;}
</style>
<title>画板 1</title>
<g>
	<g>
		<rect x="9" y="1" class="st0" width="1" height="10"/>
	</g>
</g>
<g>
	<g>
		<path class="st0" d="M9.5,18c-2.7,0-5.1-1.4-6.5-3.7c-1-1.8-1.3-3.8-0.8-5.7C2.9,6.6,4.1,5,5.7,4l0.5,0.8c-1.4,0.9-2.5,2.3-3.1,4
			c-0.4,1.6-0.2,3.3,0.7,4.9C5.1,15.8,7.2,17,9.5,17c1.1,0,2.3-0.3,3.3-0.8c3.1-1.8,4.2-5.8,2.4-8.9c-0.7-1.2-1.5-1.9-2.4-2.3
			L13.2,4c1.1,0.5,2,1.3,2.8,2.7c2.1,3.6,0.8,8.2-2.8,10.3C12.1,17.7,10.8,18,9.5,18z"/>
	</g>
</g>
</svg>
