<?xml version="1.0" encoding="utf-8"?>
<!-- Generator: Adobe Illustrator 24.0.0, SVG Export Plug-In . SVG Version: 6.00 Build 0)  -->
<svg version="1.1" id="其他" xmlns="http://www.w3.org/2000/svg" xmlns:xlink="http://www.w3.org/1999/xlink" x="0px" y="0px"
	 viewBox="0 0 16 16" style="enable-background:new 0 0 16 16;" xml:space="preserve">
<style type="text/css">
	.st0{display:none;}
	.st1{display:inline;fill:none;stroke:#263238;stroke-miterlimit:10;}
	.st2{fill:#FFFFFF;}
</style>
<g class="st0">
	<rect x="5.5" y="-1.5" class="st1" width="5" height="2"/>
	<rect x="2.5" y="0.5" class="st1" width="11" height="17"/>
	<polyline class="st1" points="10.5,3 5.3,8.3 10.9,8.3 5,14.2 	"/>
</g>
<g>
	<g>
		<rect x="7" class="st2" width="1" height="9"/>
	</g>
</g>
<g>
	<g>
		<path class="st2" d="M7.5,16c-2.7,0-5.1-1.4-6.5-3.7c-1-1.8-1.3-3.8-0.8-5.7C0.9,4.6,2.1,3,3.7,2l0.5,0.8c-1.4,0.9-2.5,2.3-3.1,4
			c-0.4,1.6-0.2,3.3,0.7,4.9C3.1,13.8,5.2,15,7.5,15c1.1,0,2.3-0.3,3.3-0.8c3.1-1.8,4.2-5.8,2.4-8.9c-0.7-1.2-1.5-1.9-2.4-2.3l0.4-1
			c1.1,0.5,2,1.3,2.8,2.7c2.1,3.6,0.8,8.2-2.8,10.3C10.1,15.7,8.8,16,7.5,16z"/>
	</g>
</g>
</svg>
