<?xml version="1.0" encoding="utf-8"?>
<!-- Generator: Adobe Illustrator 24.0.0, SVG Export Plug-In . SVG Version: 6.00 Build 0)  -->
<svg version="1.1" id="图层_19" xmlns="http://www.w3.org/2000/svg" xmlns:xlink="http://www.w3.org/1999/xlink" x="0px" y="0px"
	 viewBox="0 0 19 19" style="enable-background:new 0 0 19 19;" xml:space="preserve">
<style type="text/css">
	.st0{fill:#FFFFFF;}
</style>
<g>
	<path class="st0" d="M1.5,5.5C0.7,5.5,0,6.2,0,7.1v5.9c0,0.9,0.7,1.6,1.5,1.6S3,13.8,3,12.9V7.1C3,6.2,2.3,5.5,1.5,5.5z"/>
	<path class="st0" d="M17.5,5.5c-0.8,0-1.5,0.7-1.5,1.6v5.9c0,0.9,0.7,1.6,1.5,1.6s1.5-0.7,1.5-1.6V7.1C19,6.2,18.3,5.5,17.5,5.5z"
		/>
</g>
<path class="st0" d="M12.9,1.9l0.6-1.1c0.1-0.2,0-0.5-0.2-0.7c-0.2-0.1-0.5,0-0.7,0.2l-0.5,1l-0.2-0.1c-1.5-0.7-3.2-0.8-4.9,0
	l-0.1,0l-0.5-1C6.3,0,6-0.1,5.8,0.1C5.5,0.2,5.4,0.5,5.6,0.7l0.5,1.1C4.8,2.8,4,4.4,4,6v1h1h9h1V6C15,4.4,14.2,2.9,12.9,1.9z M7.3,5
	C6.8,5,6.5,4.7,6.5,4.3s0.3-0.8,0.8-0.8S8,3.8,8,4.3S7.7,5,7.3,5z M11.8,5C11.3,5,11,4.7,11,4.3s0.3-0.8,0.8-0.8
	c0.4,0,0.7,0.3,0.7,0.8S12.2,5,11.8,5z"/>
<path class="st0" d="M4,8v6.3C4,15.3,4.7,16,5.6,16H6v1.5C6,18.4,6.6,19,7.5,19S9,18.4,9,17.5V16h1v1.5c0,0.9,0.6,1.5,1.5,1.5
	s1.5-0.6,1.5-1.5V16h0.3c0.9,0,1.7-0.7,1.7-1.7V8H4z"/>
</svg>
