<?xml version="1.0" encoding="utf-8"?>
<!-- Generator: Adobe Illustrator 24.0.0, SVG Export Plug-In . SVG Version: 6.00 Build 0)  -->
<svg version="1.1" id="图层_19" xmlns="http://www.w3.org/2000/svg" xmlns:xlink="http://www.w3.org/1999/xlink" x="0px" y="0px"
	 viewBox="0 0 19 19" style="enable-background:new 0 0 19 19;" xml:space="preserve">
<style type="text/css">
	.st0{opacity:0.5;}
	.st1{fill:#FFFFFF;}
</style>
<g class="st0">
	<path class="st1" d="M12.9,1.9l0.6-1.1c0.1-0.2,0-0.5-0.2-0.7c-0.2-0.1-0.5,0-0.7,0.2l-0.5,1l-0.2-0.1c-1.5-0.7-3.2-0.8-4.9,0
		l-0.1,0l-0.5-1C6.3,0,6-0.1,5.8,0.1C5.5,0.2,5.4,0.5,5.6,0.7l0.5,1.1C4.8,2.8,4,4.4,4,6v8.4C4,15.3,4.7,16,5.6,16H6v1.5
		C6,18.4,6.6,19,7.5,19S9,18.4,9,17.5V16h1v1.5c0,0.9,0.6,1.5,1.5,1.5s1.5-0.6,1.5-1.5V16h0.3c0.9,0,1.7-0.7,1.7-1.7V6
		C15,4.4,14.2,2.9,12.9,1.9z M7.4,2.2l0.2-0.1c1.2-0.6,2.6-0.6,4,0l0.2,0.1C13.1,3,14,4.4,14,6H5C5,4.4,5.9,3,7.4,2.2z M14,14.3
		c0,0.4-0.3,0.7-0.7,0.7H12v2.5c0,0.3-0.2,0.5-0.5,0.5S11,17.8,11,17.5V15H8v2.5C8,17.8,7.8,18,7.5,18S7,17.8,7,17.5V15H5.6
		C5.3,15,5,14.7,5,14.3V7h9V14.3z"/>
	<circle class="st1" cx="7.3" cy="4.3" r="0.8"/>
	<path class="st1" d="M11.8,3.5c-0.4,0-0.8,0.3-0.8,0.8S11.3,5,11.8,5c0.4,0,0.7-0.3,0.7-0.8S12.2,3.5,11.8,3.5z"/>
	<path class="st1" d="M1.5,5.5C0.7,5.5,0,6.2,0,7.1v5.9c0,0.9,0.7,1.6,1.5,1.6S3,13.8,3,12.9V7.1C3,6.2,2.3,5.5,1.5,5.5z M2,12.9
		c0,0.3-0.2,0.6-0.5,0.6S1,13.2,1,12.9V7.1c0-0.3,0.2-0.6,0.5-0.6S2,6.8,2,7.1V12.9z"/>
	<path class="st1" d="M17.5,5.5c-0.8,0-1.5,0.7-1.5,1.6v5.9c0,0.9,0.7,1.6,1.5,1.6s1.5-0.7,1.5-1.6V7.1C19,6.2,18.3,5.5,17.5,5.5z
		 M18,12.9c0,0.3-0.2,0.6-0.5,0.6S17,13.2,17,12.9V7.1c0-0.3,0.2-0.6,0.5-0.6S18,6.8,18,7.1V12.9z"/>
</g>
</svg>
