<svg xmlns="http://www.w3.org/2000/svg" width="16" height="16" viewBox="0 0 16 16">
  <g id="DM-icon-所有应用" transform="translate(-441 -38)">
    <rect id="尺寸-16" width="16" height="16" transform="translate(441 38)" fill="none"/>
    <path id="所有应用" d="M5.5,0H2.3A1.2,1.2,0,0,0,1.1,1.2V4.4A1.2,1.2,0,0,0,2.3,5.6H5.5A1.2,1.2,0,0,0,6.7,4.4V1.2A1.2,1.2,0,0,0,5.5,0ZM2.3.8H5.5a.4.4,0,0,1,.4.4V4.4a.4.4,0,0,1-.4.4H2.3a.4.4,0,0,1-.4-.4V1.2A.4.4,0,0,1,2.3.8ZM11.9,0H8.7A1.2,1.2,0,0,0,7.5,1.2V4.4A1.2,1.2,0,0,0,8.7,5.6h3.2a1.2,1.2,0,0,0,1.2-1.2V1.2A1.2,1.2,0,0,0,11.9,0ZM8.7.8h3.2a.4.4,0,0,1,.4.4V4.4a.4.4,0,0,1-.4.4H8.7a.4.4,0,0,1-.4-.4V1.2A.4.4,0,0,1,8.7.8Zm3.2,5.6H8.7A1.2,1.2,0,0,0,7.5,7.6v3.2A1.2,1.2,0,0,0,8.7,12h3.2a1.2,1.2,0,0,0,1.2-1.2V7.6a1.2,1.2,0,0,0-1.2-1.2Zm-3.2.8h3.2a.4.4,0,0,1,.4.4v3.2a.4.4,0,0,1-.4.4H8.7a.4.4,0,0,1-.4-.4V7.6a.4.4,0,0,1,.4-.4ZM5.5,6.4H2.3A1.2,1.2,0,0,0,1.1,7.6v3.2A1.2,1.2,0,0,0,2.3,12H5.5a1.2,1.2,0,0,0,1.2-1.2V7.6A1.2,1.2,0,0,0,5.5,6.4Zm-3.2.8H5.5a.4.4,0,0,1,.4.4v3.2a.4.4,0,0,1-.4.4H2.3a.4.4,0,0,1-.4-.4V7.6a.4.4,0,0,1,.4-.4Z" transform="translate(441.898 40)" fill="#e0e0e0"/>
  </g>
</svg>
