<svg xmlns="http://www.w3.org/2000/svg" width="16" height="16" viewBox="0 0 16 16">
  <g id="DM-icon-check" transform="translate(-317 -38)">
    <rect id="矩形" width="16" height="16" rx="1" transform="translate(317 38)" fill="#d8d8d8" opacity="0"/>
    <path id="路径" d="M8.489.287A1.068,1.068,0,0,1,9.22,0H10.6a.2.2,0,0,1,.146.354l-6.977,6.5a.535.535,0,0,1-.795-.076L-.147,2.455a.205.205,0,0,1,.172-.324h.99a1.062,1.062,0,0,1,.862.437L3.422,4.715a.214.214,0,0,0,.319.03Z" transform="translate(320.186 43)" fill="#e0e0e0"/>
  </g>
</svg>
