<?xml version="1.0" encoding="utf-8"?>
<!-- Generator: Adobe Illustrator 24.0.0, SVG Export Plug-In . SVG Version: 6.00 Build 0)  -->
<svg version="1.1" id="放大" xmlns="http://www.w3.org/2000/svg" xmlns:xlink="http://www.w3.org/1999/xlink" x="0px" y="0px"
	 viewBox="0 0 19 19" style="enable-background:new 0 0 19 19;" xml:space="preserve">
<style type="text/css">
	.st0{opacity:0.25;fill:#FFFFFF;enable-background:new    ;}
</style>
<title>画板 1</title>
<path class="st0" d="M15,1H4.7C4.4,1,4.2,1.1,4,1.2L2,3v13c0,1.1,0.9,2,2,2h8c1.1,0,2-0.9,2-2V3h-2H8H3.5l1.2-1H15v14h1V2
	C16,1.4,15.6,1,15,1z M11,4v3.6l-0.3-0.3L10,6.6L9.3,7.3L9,7.6V4H11z M8,4v6l2-2l2,2V4h1v12c0,0.6-0.4,1-1,1H4c-0.6,0-1-0.4-1-1V4H8
	z"/>
</svg>
