<svg id="全屏_icon-所有应用" data-name="全屏 icon-所有应用" xmlns="http://www.w3.org/2000/svg" width="24" height="24" viewBox="0 0 24 24">
  <rect id="尺寸-24" width="24" height="24" rx="4" fill="none"/>
  <path id="所有" d="M8.434,0H3.1a2,2,0,0,0-2,2V7.333a2,2,0,0,0,2,2H8.434a2,2,0,0,0,2-2V2A2,2,0,0,0,8.434,0ZM3.1,1.333H8.434A.667.667,0,0,1,9.1,2V7.333A.667.667,0,0,1,8.434,8H3.1a.667.667,0,0,1-.667-.667V2A.667.667,0,0,1,3.1,1.333ZM19.1,0H13.768a2,2,0,0,0-2,2V7.333a2,2,0,0,0,2,2H19.1a2,2,0,0,0,2-2V2A2,2,0,0,0,19.1,0ZM13.768,1.333H19.1A.667.667,0,0,1,19.768,2V7.333A.667.667,0,0,1,19.1,8H13.768a.667.667,0,0,1-.667-.667V2a.667.667,0,0,1,.667-.667ZM19.1,10.667H13.768a2,2,0,0,0-2,2V18a2,2,0,0,0,2,2H19.1a2,2,0,0,0,2-2V12.667a2,2,0,0,0-2-2ZM13.768,12H19.1a.667.667,0,0,1,.667.667V18a.667.667,0,0,1-.667.667H13.768A.667.667,0,0,1,13.1,18V12.667A.667.667,0,0,1,13.768,12ZM8.434,10.667H3.1a2,2,0,0,0-2,2V18a2,2,0,0,0,2,2H8.434a2,2,0,0,0,2-2V12.667a2,2,0,0,0-2-2ZM3.1,12H8.434a.667.667,0,0,1,.667.667V18a.667.667,0,0,1-.667.667H3.1A.667.667,0,0,1,2.434,18V12.667A.667.667,0,0,1,3.1,12Z" transform="translate(0.898 2)" fill="#fff" opacity="0.904"/>
</svg>
