<svg id="全屏_icon-搜索_" data-name="全屏 icon-搜索 " xmlns="http://www.w3.org/2000/svg" width="16" height="16" viewBox="0 0 16 16">
  <rect id="矩形_236" data-name="矩形 236" width="16" height="16" fill="none"/>
  <g id="路径" transform="translate(1 1)" fill="none" stroke-miterlimit="10">
    <path d="M6.446,0a6.447,6.447,0,0,1,5.126,10.356l2.18,2.181a.87.87,0,0,1,0,1.216h0a.87.87,0,0,1-1.216,0l-2.181-2.18A6.447,6.447,0,1,1,6.446,0Z" stroke="none"/>
    <path d="M 6.446412086486816 1.000001907348633 C 3.443252563476562 1.000001907348633 1.000001907348633 3.443252563476562 1.000001907348633 6.446412086486816 C 1.000001907348633 9.44957160949707 3.443252563476562 11.89281272888184 6.446412086486816 11.89281272888184 C 7.65184211730957 11.89281272888184 8.79376220703125 11.50727272033691 9.74874210357666 10.77787208557129 L 10.33222103118896 10.33222103118896 L 10.77787208557129 9.74874210357666 C 11.50727272033691 8.79376220703125 11.89281272888184 7.65184211730957 11.89281272888184 6.446412086486816 C 11.89281272888184 3.443252563476562 9.44957160949707 1.000001907348633 6.446412086486816 1.000001907348633 M 6.446412086486816 1.9073486328125e-06 C 10.00666236877441 1.9073486328125e-06 12.89281177520752 2.886152267456055 12.89281177520752 6.446412086486816 C 12.89281177520752 7.916312217712402 12.40084266662598 9.271322250366211 11.57258224487305 10.35573196411133 L 13.75247192382812 12.53664207458496 C 14.08256244659424 12.86689186096191 14.0825023651123 13.42217254638672 13.75233173370361 13.75233173370361 C 13.58723163604736 13.91743755340576 13.36581897735596 14 13.1444206237793 14 C 12.92307662963867 14 12.70174694061279 13.91749668121338 12.53664207458496 13.75247192382812 L 10.35573196411133 11.57258224487305 C 9.271322250366211 12.40084266662598 7.916312217712402 12.89281177520752 6.446412086486816 12.89281177520752 C 2.886152267456055 12.89281177520752 1.9073486328125e-06 10.00666236877441 1.9073486328125e-06 6.446412086486816 C 1.9073486328125e-06 2.886152267456055 2.886152267456055 1.9073486328125e-06 6.446412086486816 1.9073486328125e-06 Z" stroke="none" fill="#fff"/>
  </g>
</svg>
