<?xml version="1.0" encoding="utf-8"?>
<!-- Generator: Adobe Illustrator 24.0.0, SVG Export Plug-In . SVG Version: 6.00 Build 0)  -->
<svg version="1.1" id="放大" xmlns="http://www.w3.org/2000/svg" xmlns:xlink="http://www.w3.org/1999/xlink" x="0px" y="0px"
	 viewBox="0 0 19 19" style="enable-background:new 0 0 19 19;" xml:space="preserve">
<style type="text/css">
	.st0{opacity:0.25;}
	.st1{fill:#FFFFFF;}
	.st2{opacity:0.25;fill:#FFFFFF;enable-background:new    ;}
</style>
<title>画板 1</title>
<g class="st0">
	<path class="st1" d="M4.5,6C5.3,6,6,6.7,6,7.5S5.3,9,4.5,9S3,8.3,3,7.5S3.7,6,4.5,6 M4.5,5C3.1,5,2,6.1,2,7.5S3.1,10,4.5,10
		S7,8.9,7,7.5S5.9,5,4.5,5L4.5,5z"/>
</g>
<g class="st0">
	<path class="st1" d="M13.7,4c0.1,0,0.2,0,0.2,0l0,0l0,0c1.5,0,4,2.4,4,5c0,3.7-0.9,6-1.5,6c-0.8,0-2.5-1.8-3.7-3.5L12.5,11H12H7
		H6.4l-0.3,0.5C5.3,12.9,3.5,15,2.5,15C1.9,15,1,13.1,1,9c0-2.6,2.5-5,4-5l0,0l0,0c0.1,0,0.2,0,0.2,0c0.7,0,1.4,0.3,2,0.8L7.6,5H8h3
		h0.4l0.3-0.2C12.2,4.3,12.9,4,13.7,4 M13.7,3c-1,0-1.9,0.4-2.7,1H8C7.3,3.4,6.3,3,5.3,3C5.2,3,5.1,3,5,3C2.8,3,0,6,0,9
		c0,4,0.8,7,2.5,7C4.6,16,7,12,7,12h5c0,0,2.6,4,4.5,4S19,12,19,9s-2.8-6-5-6C13.9,3,13.8,3,13.7,3L13.7,3z"/>
</g>
<rect x="12" y="7" class="st2" width="2" height="1"/>
<rect x="15" y="7" class="st2" width="2" height="1"/>
<rect x="14" y="5" class="st2" width="1" height="2"/>
<rect x="14" y="8" class="st2" width="1" height="2"/>
</svg>
