<?xml version="1.0" encoding="utf-8"?>
<!-- Generator: Adobe Illustrator 24.0.0, SVG Export Plug-In . SVG Version: 6.00 Build 0)  -->
<svg version="1.1" id="图层_2_1_" xmlns="http://www.w3.org/2000/svg" xmlns:xlink="http://www.w3.org/1999/xlink" x="0px"
	 y="0px" viewBox="0 0 19 19" style="enable-background:new 0 0 19 19;" xml:space="preserve">
<style type="text/css">
	.st0{fill:#FFFFFF;}
</style>
<title>画板 1</title>
<path class="st0" d="M11.1,2.2c0.4,0.1,0.7,0.4,0.8,0.8L12,3.5L9.9,4.7l-2.8,1L6.6,6.1C6.1,6.5,5.4,6.4,5.1,5.9L4.6,5.1
	C4.4,4.7,4.4,4.2,4.8,3.8l0.7-0.6C6.6,2.4,8,2,9.5,2C10.1,2,10.6,2.1,11.1,2.2z M12.6,8.2v2.3L11.4,16h-1.1L7.8,9.7L7,9.4V8.2
	c0-0.6,0.4-1,1-1h3.6C12.2,7.2,12.6,7.6,12.6,8.2z"/>
<g>
	<path class="st0" d="M9.5,2C13.6,2,17,5.4,17,9.5S13.6,17,9.5,17S2,13.6,2,9.5S5.4,2,9.5,2 M9.5,1C4.8,1,1,4.8,1,9.5S4.8,18,9.5,18
		S18,14.2,18,9.5S14.2,1,9.5,1L9.5,1z"/>
</g>
</svg>
