<?xml version="1.0" encoding="utf-8"?>
<!-- Generator: Adobe Illustrator 24.0.0, SVG Export Plug-In . SVG Version: 6.00 Build 0)  -->
<svg version="1.1" id="图层_1" xmlns="http://www.w3.org/2000/svg" xmlns:xlink="http://www.w3.org/1999/xlink" x="0px" y="0px"
	 viewBox="0 0 16 16" style="enable-background:new 0 0 16 16;" xml:space="preserve">
<style type="text/css">
	.st0{fill:#607D8B;}
	.st1{opacity:0.3;enable-background:new    ;}
	.st2{fill:url(#SVGID_1_);}
	.st3{opacity:0.5;fill:#FDEFBA;enable-background:new    ;}
</style>
<title>画板 1</title>
<g id="锁-小">
	<g id="_32-3">
		<g id="_512">
			<g>
				<g>
					<path class="st0" d="M8,2c1.6,0,3,1.2,3,2.6V6H5V4.6C5,3.2,6.4,2,8,2 M8,0C5.3,0,3,2.1,3,4.6V8h8.3H13V4.6C13,2.1,10.8,0,8,0
						L8,0z"/>
				</g>
			</g>
			<path class="st1" d="M2,6h12c1.1,0,2,0.9,2,2v6c0,1.1-0.9,2-2,2H2c-1.1,0-2-0.9-2-2V8C0,6.9,0.9,6,2,6z"/>
			
				<linearGradient id="SVGID_1_" gradientUnits="userSpaceOnUse" x1="8" y1="-93.1268" x2="8" y2="-102" gradientTransform="matrix(1 0 0 1 0 108)">
				<stop  offset="0" style="stop-color:#F5A816"/>
				<stop  offset="0.67" style="stop-color:#F9CE4B"/>
				<stop  offset="1" style="stop-color:#FADD60"/>
			</linearGradient>
			<path class="st2" d="M3,6h10c1.1,0,2,0.9,2,2v5c0,1.1-0.9,2-2,2H3c-1.1,0-2-0.9-2-2V8C1,6.9,1.9,6,3,6z"/>
			<rect x="3" y="6" class="st3" width="2" height="9"/>
			<rect x="11" y="6" class="st3" width="2" height="9"/>
		</g>
	</g>
</g>
</svg>
