<svg id="图层_1" data-name="图层 1" xmlns="http://www.w3.org/2000/svg" xmlns:xlink="http://www.w3.org/1999/xlink" viewBox="0 0 16 16">
<defs>
<style type="text/css">
	.cls-1{opacity:0.3;}
	.cls-2{opacity:0.1;}
	.cls-3{fill:#c2c2c2;}
	.cls-4{fill:url(#未命名的渐变_72);}
	.cls-5{fill:url(#未命名的渐变_64);}
	.cls-6{fill:url(#未命名的渐变_10);}
	.cls-7{fill:url(#未命名的渐变_39);}
</style>
<linearGradient id="未命名的渐变_72" x1="3.15" y1="9.36" x2="11.5" y2="9.36" gradientTransform="translate(8.25 -2.65) rotate(45)" gradientUnits="userSpaceOnUse">
<stop offset="0" stop-color="#ffcd94"/>
<stop offset="1" stop-color="#ff986a"/>
</linearGradient>
<linearGradient id="未命名的渐变_64" x1="5.36" y1="6.47" x2="9.48" y2="6.47" gradientTransform="translate(8.25 -2.65) rotate(45)" gradientUnits="userSpaceOnUse">
<stop offset="0" stop-color="#ffb16a"/>
<stop offset="0.11" stop-color="#ffc586"/>
<stop offset="0.22" stop-color="#ffd49b"/>
<stop offset="0.29" stop-color="#ffd9a3"/>
<stop offset="0.42" stop-color="#fec98f"/>
<stop offset="0.66" stop-color="#fcaf6f"/>
<stop offset="0.86" stop-color="#faa05c"/>
<stop offset="1" stop-color="#fa9a55"/>
</linearGradient>
<linearGradient id="未命名的渐变_10" x1="3.15" y1="3.73" x2="11.5" y2="3.73" gradientTransform="translate(8.25 -2.65) rotate(45)" gradientUnits="userSpaceOnUse">
<stop offset="0" stop-color="#ff986a"/>
<stop offset="0.23" stop-color="#ffb16a"/>
<stop offset="1" stop-color="#ff986a"/>
</linearGradient>
<linearGradient id="未命名的渐变_39" x1="3.15" y1="2.3" x2="11.5" y2="2.3" gradientTransform="translate(14.1 -3.17) rotate(90)" gradientUnits="userSpaceOnUse">
<stop offset="0" stop-color="#ffd9a3"/>
<stop offset="1" stop-color="#ffb16a"/>
</linearGradient>
</defs>
<title>彩色</title>
<path class="cls-1" d="M12.59,4.37C11,2.74,9.29,1.77,8.85,2.21s-.64,1.91-.14,3.26l-2.2,2.2c-1.34-.51-2.73-.4-3.26.14-.38.38.31,1.7,1.57,3.11L1.91,14.74l.42.43,4-2.81c1.31,1.11,2.5,1.7,2.85,1.35a3.29,3.29,0,0,0,.21-3.07l2.33-2.32a3.32,3.32,0,0,0,3.06-.21C15.19,7.67,14.22,6,12.59,4.37Z"/>
<path class="cls-2" d="M13.21,5.2C11.58,3.57,9.91,2.61,9.47,3S8.83,5,9.33,6.3L7.13,8.5C5.79,8,4.4,8.11,3.87,8.64c-.38.38.31,1.7,1.57,3.11L2.52,15.58,3,16l4-2.81c1.31,1.12,2.49,1.71,2.85,1.35A3.27,3.27,0,0,0,10,11.48l2.33-2.33a3.27,3.27,0,0,0,3.06-.21C15.81,8.51,14.84,6.83,13.21,5.2Z"/>
<polygon class="cls-3" points="1.91 13.74 5.07 9.6 6.61 11.13 2.33 14.17 1.91 13.74"/>
<path class="cls-4" d="M8.22,7.74C6.59,6.11,4,6,3.25,6.81c-.43.43.54,2.11,2.16,3.74s3.31,2.59,3.74,2.16C9.93,11.93,9.85,9.37,8.22,7.74Z"/>
<path class="cls-5" d="M9.18,4l-3,3c-.25.26.2,1.12,1,1.92s1.66,1.25,1.92,1l3-3Z"/>
<path class="cls-6" d="M11,4.94c-1.63-1.63-2.6-3.3-2.17-3.73-.77.77-.69,3.33.94,5s4.19,1.71,5,.94C14.32,7.54,12.65,6.57,11,4.94Z"/>
<ellipse class="cls-7" cx="11.8" cy="4.16" rx="1.11" ry="4.17" transform="translate(0.52 9.56) rotate(-45)"/>
</svg>
