<?xml version="1.0" encoding="utf-8"?>
<!-- Generator: Adobe Illustrator 24.1.2, SVG Export Plug-In . SVG Version: 6.00 Build 0)  -->
<svg version="1.1" id="图层_19" xmlns="http://www.w3.org/2000/svg" xmlns:xlink="http://www.w3.org/1999/xlink" x="0px" y="0px"
	 viewBox="0 0 19 19" style="enable-background:new 0 0 19 19;" xml:space="preserve">
<style type="text/css">
	.st0{fill:#FFFFFF;}
</style>
<g>
	<circle class="st0" cx="10" cy="16.5" r="1"/>
	<path class="st0" d="M14,0H6C4.9,0,4,0.9,4,2v15c0,1.1,0.9,2,2,2h8c1.1,0,2-0.9,2-2V2C16,0.9,15.1,0,14,0z M6,1h8c0.6,0,1,0.4,1,1
		v12H5V2C5,1.4,5.4,1,6,1z M14,18H6c-0.6,0-1-0.4-1-1v-2h10v2C15,17.6,14.6,18,14,18z"/>
</g>
</svg>
