<?xml version="1.0" encoding="utf-8"?>
<!-- Generator: Adobe Illustrator 24.1.2, SVG Export Plug-In . SVG Version: 6.00 Build 0)  -->
<svg version="1.1" id="图层_19" xmlns="http://www.w3.org/2000/svg" xmlns:xlink="http://www.w3.org/1999/xlink" x="0px" y="0px"
	 viewBox="0 0 19 19" style="enable-background:new 0 0 19 19;" xml:space="preserve">
<style type="text/css">
	.st0{opacity:0.25;}
	.st1{fill:#FFFFFF;}
</style>
<g class="st0">
	<circle class="st1" cx="10" cy="16" r="1"/>
	<path class="st1" d="M14,0H6C4.9,0,4,0.9,4,2v11v1v3c0,1.1,0.9,2,2,2h8c1.1,0,2-0.9,2-2v-3v-1V2C16,0.9,15.1,0,14,0z M15,17
		c0,0.6-0.4,1-1,1H6c-0.6,0-1-0.4-1-1v-3h10V17z M5,13V2c0-0.6,0.4-1,1-1h8c0.6,0,1,0.4,1,1v11H5z"/>
</g>
</svg>
