<?xml version="1.0" encoding="utf-8"?>
<!-- Generator: Adobe Illustrator 24.0.0, SVG Export Plug-In . SVG Version: 6.00 Build 0)  -->
<svg version="1.1" id="放大" xmlns="http://www.w3.org/2000/svg" xmlns:xlink="http://www.w3.org/1999/xlink" x="0px" y="0px"
	 viewBox="0 0 19 19" style="enable-background:new 0 0 19 19;" xml:space="preserve">
<style type="text/css">
	.st0{fill:#FAFEFF;}
</style>
<g>
	<path class="st0" d="M18,4h-5V3c0-0.6-0.4-1-1-1H8C7.4,2,7,2.4,7,3v1H2C1.4,4,1,4.4,1,5v3h7c0-0.6,0.4-1,1-1h2c0.6,0,1,0.4,1,1h7V5
		C19,4.4,18.6,4,18,4z M8,3h4v1H8V3z"/>
	<path class="st0" d="M12,10c0,0.6-0.4,1-1,1H9c-0.6,0-1-0.4-1-1V9H1v7c0,0.6,0.4,1,1,1h16c0.6,0,1-0.4,1-1V9h-7V10z"/>
</g>
</svg>
