<?xml version="1.0" encoding="utf-8"?>
<!-- Generator: Adobe Illustrator 23.0.1, SVG Export Plug-In . SVG Version: 6.00 Build 0)  -->
<svg version="1.1" id="图层_3" xmlns="http://www.w3.org/2000/svg" xmlns:xlink="http://www.w3.org/1999/xlink" x="0px" y="0px"
	 viewBox="0 0 19 19" style="enable-background:new 0 0 19 19;" xml:space="preserve">
<style type="text/css">
	.st0{fill:#FFFFFF;}
</style>
<title>画板 1</title>
<g>
	<circle class="st0" cx="4.5" cy="7.5" r="1.5"/>
</g>
<g>
	<circle class="st0" cx="9.5" cy="7.5" r="1.5"/>
</g>
<g>
	<circle class="st0" cx="14.5" cy="7.5" r="1.5"/>
</g>
<g>
	<path class="st0" d="M9.5,1C14.1,1,18,4,18,7.5S14.1,14,9.5,14c-0.2,0-0.3,0-0.5,0l-0.1,0l-0.4,0l-0.3,0.3L5,16.9v-3.3V13l-0.5-0.3
		C2.3,11.5,1,9.5,1,7.5C1,4,4.9,1,9.5,1 M9.5,0C4.3,0,0,3.4,0,7.5c0,2.5,1.6,4.7,4,6.1V19l4.9-4c0.2,0,0.4,0,0.6,0
		c5.2,0,9.5-3.4,9.5-7.5S14.7,0,9.5,0L9.5,0z"/>
</g>
</svg>
