<?xml version="1.0" encoding="utf-8"?>
<!-- Generator: Adobe Illustrator 24.0.0, SVG Export Plug-In . SVG Version: 6.00 Build 0)  -->
<svg version="1.1" id="放大" xmlns="http://www.w3.org/2000/svg" xmlns:xlink="http://www.w3.org/1999/xlink" x="0px" y="0px"
	 viewBox="0 0 19 19" style="enable-background:new 0 0 19 19;" xml:space="preserve">
<style type="text/css">
	.st0{opacity:0.25;enable-background:new    ;}
	.st1{fill:#FFFFFF;}
</style>
<title>画板 1</title>
<g class="st0">
	<path class="st1" d="M3.6,18.4l-2.8-2.8l6-6C6.1,8.1,6,6.5,6.4,5.1c1-3.1,4.4-4.8,7.5-3.8l0.8,0.2L11,5.2c-0.6,0.6-0.6,1.5,0,2.1
		L11.8,8c0.6,0.6,1.5,0.6,2.1,0l3.7-3.7L17.9,5c0.4,1.2,0.4,2.5,0,3.7c-1,3.1-4.4,4.8-7.5,3.8c-0.2-0.1-0.4-0.1-0.7-0.3L3.6,18.4z
		 M2.2,15.6L3.6,17l5.8-5.8l0.3,0.2c0.2,0.2,0.5,0.2,0.8,0.3c2.6,0.8,5.4-0.6,6.3-3.2C17.1,7.8,17.2,7,17,6.3l-2.5,2.5
		c-1,1-2.5,1-3.5,0l-0.7-0.7c-1-1-1-2.5,0-3.5l2.5-2.5c-2.4-0.3-4.7,1.1-5.4,3.4C7,6.7,7.1,8.1,7.8,9.5L8,9.8L2.2,15.6z"/>
</g>
</svg>
