<?xml version="1.0" encoding="utf-8"?>
<!-- Generator: Adobe Illustrator 24.0.0, SVG Export Plug-In . SVG Version: 6.00 Build 0)  -->
<svg version="1.1" id="图层_2_1_" xmlns="http://www.w3.org/2000/svg" xmlns:xlink="http://www.w3.org/1999/xlink" x="0px"
	 y="0px" viewBox="0 0 19 19" style="enable-background:new 0 0 19 19;" xml:space="preserve">
<style type="text/css">
	.st0{opacity:0.25;}
	.st1{fill:#FFFFFF;}
</style>
<title>画板 1</title>
<g class="st0">
	<path class="st1" d="M11.6,7.2H8c-0.6,0-1,0.4-1,1v1.2l0.8,0.3l2.5,6.3h1.1l1.2-5.5V8.2C12.6,7.6,12.2,7.2,11.6,7.2z"/>
	<path class="st1" d="M9.5,1C4.8,1,1,4.8,1,9.5S4.8,18,9.5,18S18,14.2,18,9.5S14.2,1,9.5,1z M9.5,17C5.4,17,2,13.6,2,9.5
		c0-2.9,1.7-5.4,4.1-6.7C5.9,2.9,5.7,3.1,5.5,3.2L4.8,3.8C4.4,4.2,4.4,4.7,4.6,5.1l0.5,0.8c0.3,0.5,1,0.6,1.5,0.2l0.5-0.4l2.8-1
		L12,3.5L11.9,3c-0.1-0.4-0.4-0.7-0.8-0.8C10.6,2.1,10.1,2,9.5,2C9.2,2,8.9,2,8.6,2.1C8.9,2,9.2,2,9.5,2C13.6,2,17,5.4,17,9.5
		S13.6,17,9.5,17z"/>
</g>
</svg>
