<?xml version="1.0" encoding="utf-8"?>
<!-- Generator: Adobe Illustrator 23.0.1, SVG Export Plug-In . SVG Version: 6.00 Build 0)  -->
<svg version="1.1" id="放大" xmlns="http://www.w3.org/2000/svg" xmlns:xlink="http://www.w3.org/1999/xlink" x="0px" y="0px"
	 viewBox="0 0 19 19" style="enable-background:new 0 0 19 19;" xml:space="preserve">
<style type="text/css">
	.st0{fill:#FFFFFF;}
	.st1{fill:#FAFEFF;}
</style>
<g>
	<path class="st0" d="M18,5v2h-5.3c-0.3-0.6-1-1-1.7-1H9C8.3,6,7.6,6.4,7.3,7H2V5H18 M18,4H2C1.4,4,1,4.4,1,5v3h7c0-0.6,0.4-1,1-1h2
		c0.6,0,1,0.4,1,1h7V5C19,4.4,18.6,4,18,4L18,4z"/>
</g>
<g>
	<path class="st0" d="M18,10v6H2v-6h5c0,1.1,0.9,2,2,2h2c1.1,0,2-0.9,2-2H18 M19,9h-7v1c0,0.6-0.4,1-1,1H9c-0.6,0-1-0.4-1-1V9H1v7
		c0,0.6,0.4,1,1,1h16c0.6,0,1-0.4,1-1V9L19,9z"/>
</g>
<g>
	<path class="st1" d="M12,3v1H8V3H12 M12,2H8C7.4,2,7,2.4,7,3v2h6V3C13,2.4,12.6,2,12,2L12,2z"/>
</g>
</svg>
