<?xml version="1.0" encoding="utf-8"?>
<!-- Generator: Adobe Illustrator 24.0.0, SVG Export Plug-In . SVG Version: 6.00 Build 0)  -->
<svg version="1.1" id="图层_19" xmlns="http://www.w3.org/2000/svg" xmlns:xlink="http://www.w3.org/1999/xlink" x="0px" y="0px"
	 viewBox="0 0 19 19" style="enable-background:new 0 0 19 19;" xml:space="preserve">
<style type="text/css">
	.st0{opacity:0.25;}
	.st1{fill:#FFFFFF;}
</style>
<title>画板 1</title>
<g class="st0">
	<polygon class="st1" points="10,5 10,10 15,10 15,9 11,9 11,5 	"/>
	<path class="st1" d="M11,1C6.6,1,3,4.6,3,9c0,0.3,0,0.6,0.1,0.9L0.9,7.6L0.1,8.4l3.4,3.4l3.4-3.4L6.1,7.6l-2,2.1C4,9.5,4,9.3,4,9
		c0-3.8,3.2-7,7-7s7,3.2,7,7s-3.2,7-7,7c-2.2,0-4.3-1-5.5-2.7C5.3,13.1,5,13,4.8,13.2s-0.3,0.5-0.1,0.7C6.1,15.8,8.5,17,11,17
		c4.4,0,8-3.6,8-8S15.4,1,11,1z"/>
</g>
</svg>
