<?xml version="1.0" encoding="utf-8"?>
<!-- Generator: Adobe Illustrator 23.0.1, SVG Export Plug-In . SVG Version: 6.00 Build 0)  -->
<svg version="1.1" id="图层_1" xmlns="http://www.w3.org/2000/svg" xmlns:xlink="http://www.w3.org/1999/xlink" x="0px" y="0px"
	 viewBox="0 0 16 16" style="enable-background:new 0 0 16 16;" xml:space="preserve">
<style type="text/css">
	.st0{fill:#FFFFFF;}
	.st1{opacity:0.5;}
</style>
<g class="st1">
	<path class="st0" d="M15,14.1l-3.9-3.9l0,0l0,0c-0.9,1.2-2.3,1.9-3.9,1.9c-2.7,0-4.9-2.2-4.9-4.9s2.2-4.9,4.9-4.9s4.9,2.2,4.9,4.9
	c0,0.4-0.1,0.8-0.2,1.2l1,1c0.3-0.7,0.4-1.4,0.4-2.2c0-3.4-2.8-6.2-6.2-6.2C3.8,1,1,3.8,1,7.2s2.8,6.2,6.2,6.2
	c1.5,0,2.8-0.5,3.9-1.4l3,3L15,14.1z"/>
</g>
</svg>
