<?xml version="1.0" encoding="utf-8"?>
<!-- Generator: Adobe Illustrator 23.0.1, SVG Export Plug-In . SVG Version: 6.00 Build 0)  -->
<svg version="1.1" id="图层_3" xmlns="http://www.w3.org/2000/svg" xmlns:xlink="http://www.w3.org/1999/xlink" x="0px" y="0px"
	 viewBox="0 0 19 19" style="enable-background:new 0 0 19 19;" xml:space="preserve">
<style type="text/css">
	.st0{fill:#FFFFFF;}
</style>
<title>画板 1</title>
<g>
	<path class="st0" d="M9.5,0C4.3,0,0,3.4,0,7.5c0,2.5,1.6,4.7,4,6.1V19l4.9-4c0.2,0,0.4,0,0.6,0c5.2,0,9.5-3.4,9.5-7.5S14.7,0,9.5,0
		z M4.5,9C3.7,9,3,8.3,3,7.5S3.7,6,4.5,6S6,6.7,6,7.5S5.3,9,4.5,9z M9.5,9C8.7,9,8,8.3,8,7.5S8.7,6,9.5,6S11,6.7,11,7.5
		S10.3,9,9.5,9z M14.5,9C13.7,9,13,8.3,13,7.5S13.7,6,14.5,6S16,6.7,16,7.5S15.3,9,14.5,9z"/>
</g>
</svg>
