<?xml version="1.0" encoding="utf-8"?>
<!-- Generator: Adobe Illustrator 24.0.0, SVG Export Plug-In . SVG Version: 6.00 Build 0)  -->
<svg version="1.1" id="图层_5" xmlns="http://www.w3.org/2000/svg" xmlns:xlink="http://www.w3.org/1999/xlink" x="0px" y="0px"
	 viewBox="0 0 19 19" style="enable-background:new 0 0 19 19;" xml:space="preserve">
<style type="text/css">
	.st0{opacity:0.25;}
	.st1{fill:#FFFFFF;}
</style>
<title>画板 1</title>
<g class="st0">
	<path class="st1" d="M16,2h-1h-1H6H5H4C2.9,2,2,2.9,2,4v1v1v2v1v2v1v2v1v1c0,1.1,0.9,2,2,2h1h1h8h1h1c1.1,0,2-0.9,2-2v-1v-1v-2v-1
		V9V8V6V5V4C18,2.9,17.1,2,16,2z M3,4c0-0.6,0.4-1,1-1h1v2H3V4z M3,6h2v2H3V6z M3,9h2v2H3V9z M3,12h2v2H3V12z M4,17
		c-0.6,0-1-0.4-1-1v-1h2v2H4z M6,17V3h8v14H6z M17,16c0,0.6-0.4,1-1,1h-1v-2h2V16z M17,14h-2v-2h2V14z M17,11h-2V9h2V11z M17,8h-2V6
		h2V8z M15,5V3h1c0.6,0,1,0.4,1,1v1H15z"/>
	<path class="st1" d="M11.8,9.3l-2.1-2C9.1,6.7,8,7.1,8,8v4c0,0.9,1.1,1.3,1.7,0.7l2.1-2C12.2,10.3,12.2,9.7,11.8,9.3z"/>
</g>
</svg>
