<?xml version="1.0" encoding="iso-8859-1"?>
<!-- Generator: Adobe Illustrator 21.0.0, SVG Export Plug-In . SVG Version: 6.00 Build 0)  -->
<svg version="1.1" id="&#x6B63;&#x5E38;" xmlns="http://www.w3.org/2000/svg" xmlns:xlink="http://www.w3.org/1999/xlink" x="0px"
	 y="0px" viewBox="0 0 60 40" enable-background="new 0 0 60 40" xml:space="preserve">
<g>
	<polygon opacity="0.2" points="6.6,22.9 30,1.7 53.4,22.9 50.2,26.4 30,8.1 9.8,26.4 	"/>
	<g opacity="0.2">
		<polygon points="33,37 33,26 27,26 27,37 16,37 16,21.6 30,8.5 44,21.6 44,37 		"/>
	</g>
	<polygon opacity="8.000000e-02" points="6.2,23.8 31,1.3 55.8,23.8 51.3,28.8 31,10.4 10.7,28.8 	"/>
	<polygon opacity="0.1" points="7.6,23.9 31,2.7 54.4,23.9 51.2,27.4 31,9.1 10.8,27.4 	"/>
	<g opacity="8.000000e-02">
		<polygon points="33,39 33,28 29,28 29,39 16,39 16,22.1 31,8.1 46,22.1 46,39 		"/>
	</g>
	<g opacity="0.1">
		<polygon points="34,38 34,27 28,27 28,38 17,38 17,22.6 31,9.5 45,22.6 45,38 		"/>
	</g>
	<linearGradient id="SVGID_1_" gradientUnits="userSpaceOnUse" x1="30" y1="25" x2="30" y2="3">
		<stop  offset="0" style="stop-color:#DBDBDB"/>
		<stop  offset="1" style="stop-color:#FFFFFF"/>
	</linearGradient>
	<polygon fill="url(#SVGID_1_)" points="9.8,25 8,22.9 30,3 52,22.9 50.1,25 30,6.7 	"/>
	<g>
		<linearGradient id="SVGID_2_" gradientUnits="userSpaceOnUse" x1="30" y1="36" x2="30" y2="9.875">
			<stop  offset="0" style="stop-color:#DBDBDB"/>
			<stop  offset="1" style="stop-color:#FFFFFF"/>
		</linearGradient>
		<polygon fill="url(#SVGID_2_)" points="30,9.9 17,22 17,36 26,36 26,25 34,25 34,36 43,36 43,22 		"/>
	</g>
</g>
</svg>
