<?xml version="1.0" encoding="utf-8"?>
<!-- Generator: Adobe Illustrator 21.0.0, SVG Export Plug-In . SVG Version: 6.00 Build 0)  -->
<svg version="1.1" id="svg2" xmlns="http://www.w3.org/2000/svg" xmlns:xlink="http://www.w3.org/1999/xlink" x="0px" y="0px"
	 viewBox="0 0 64 64" style="enable-background:new 0 0 64 64;" xml:space="preserve">
<style type="text/css">
	.st0{fill:#FFFFFF;}
</style>
<title>画板 1</title>
<polygon class="st0" points="25.6,57 33.5,57.1 33.5,53.9 33.5,53.8 39.6,49 35.7,46.3 30.7,52.2 "/>
<polygon class="st0" points="53.9,25.9 49.6,32.3 45.3,34.6 42.2,36.3 31.9,32.1 24.4,26.6 29.4,19.7 27.6,12.6 30.8,3 23.1,10.7 
	22.1,10.5 24.1,5.7 21.4,10.4 24.1,5.6 17.1,12.8 16.5,13.1 10.2,17 7.3,23.4 3,30.6 7,40.6 8.3,48.3 9.9,52.3 7.2,55.5 4.4,58.9 
	12.1,58.9 13.1,51.9 16.2,47.1 21.4,48 27.2,45.7 31.5,43.5 35.7,46.3 39.7,49 41.8,51.8 35.5,61 43.6,61 43.2,56.4 49.1,51 
	46.1,44.9 45.7,37.5 51.8,34 55.1,34.6 59.6,33.1 61,23.8 "/>
</svg>
