<svg id="图层_1" data-name="图层 1" xmlns="http://www.w3.org/2000/svg" viewBox="0 0 24 24"><defs><style>.cls-1{fill:#fff;}.cls-2{fill:none;stroke:#fff;stroke-miterlimit:10;}</style></defs><title>画板 1</title><g id="_24" data-name="24"><rect class="cls-1" x="3" y="1" width="18" height="1"/><rect class="cls-1" x="3" y="22" width="18" height="1"/><path class="cls-2" d="M5.5,1.5c-.47,4.94,0,6.13,3.75,8.78,1.91,1.34,1.63,2.16,0,3.41C3.72,18,4.81,20.5,5.5,22.5h13c1-2.72.84-4.34-4.69-9.34C13,12.4,13.31,11.5,15,10c4-3.58,3.7-6.12,3.5-8.5Z"/><polygon class="cls-1" points="8 6 16 6 12 10 8 6"/><path class="cls-1" d="M5,22c0-3.28,4.12-4,7-4,3.08,0,7,1.08,7,4.5"/></g></svg>