<?xml version="1.0" encoding="utf-8"?>
<!-- Generator: Adobe Illustrator 21.0.0, SVG Export Plug-In . SVG Version: 6.00 Build 0)  -->
<svg version="1.1" id="图层_1" xmlns="http://www.w3.org/2000/svg" xmlns:xlink="http://www.w3.org/1999/xlink" x="0px" y="0px"
	 viewBox="0 0 22 22" enable-background="new 0 0 22 22" xml:space="preserve">
<g id="_22">
	<polygon fill="#FFFFFF" points="7,5 15,5 11,9 	"/>
	<path fill="#FFFFFF" d="M20,0h-2H4H2v1h2C3.5,5.7,4.2,7.1,8,9.7c0.7,0.5,1.1,0.9,1.1,1.3c0,0.3-0.4,0.7-1.1,1.3
		C2.7,16.4,3.2,19,3.8,21H2v1h2.1h13.7H20v-1h-1.8c0.8-2.7,0-4.7-5-9.2c-0.2-0.2-0.3-0.4-0.3-0.5c0-0.4,0.5-1.1,1.5-1.9
		C18.2,5.9,18.2,3.3,18,1h2V0z M13.7,8.6c-1.2,1.1-1.8,1.9-1.8,2.6c0,0.5,0.2,0.9,0.6,1.3c4.1,3.7,5.1,5.5,5,7
		C16.3,17.7,13.4,17,11,17c-2.3,0-5.4,0.5-6.6,2.3c-0.1-1.6,0.5-3.5,4.1-6.3c0.8-0.6,1.5-1.3,1.5-2.2c0-0.7-0.5-1.3-1.5-2.1
		C5.1,6.4,4.5,5.4,5,1H17C17.2,3.2,17.2,5.4,13.7,8.6z"/>
</g>
</svg>
