<?xml version="1.0" encoding="utf-8"?>
<!-- Generator: Adobe Illustrator 15.0.0, SVG Export Plug-In . SVG Version: 6.00 Build 0)  -->
<!DOCTYPE svg PUBLIC "-//W3C//DTD SVG 1.1//EN" "http://www.w3.org/Graphics/SVG/1.1/DTD/svg11.dtd">
<svg version="1.1"
	 id="svg2" xmlns:rdf="http://www.w3.org/1999/02/22-rdf-syntax-ns#" xmlns:cc="http://creativecommons.org/ns#" xmlns:dc="http://purl.org/dc/elements/1.1/"
	 xmlns="http://www.w3.org/2000/svg" xmlns:xlink="http://www.w3.org/1999/xlink" x="0px" y="0px" width="16px" height="16px"
	 viewBox="0 0 16 16" enable-background="new 0 0 16 16" xml:space="preserve">
<g id="layer2" transform="translate(0,-6)" display="none">
	<rect id="rect4898" display="inline" fill="#333333" width="22" height="22"/>
</g>
<g id="layer3" transform="translate(0,-6)" display="none">
	<rect id="rect4126" display="inline" fill="#EFEBE7" width="22" height="22"/>
</g>
<g>
	<defs>
		<path id="SVGID_1_" d="M7.386,4.906v3.789c0,0.343-0.434,0.893-2.22,0.893c-1.488,0-2.003-0.226-2.003-0.786
			c0-3.869-0.108-3.77-0.108-3.77H1.323c0,0,0.009,2.575,0.009,3.961c0,0.166,0.338,1.31,1.555,1.729
			c0.69,0.238,0.926,0.372,2.272,0.372c1.295,0,2.3-0.186,2.958-0.575c0.908-0.536,1.208-1.377,1.208-1.905V4.906H7.386z"/>
	</defs>
	<use xlink:href="#SVGID_1_"  overflow="visible" fill="#BEBEBE"/>
	<clipPath id="SVGID_2_">
		<use xlink:href="#SVGID_1_"  overflow="visible"/>
	</clipPath>
	<rect x="1.323" y="4.906" clip-path="url(#SVGID_2_)" fill="#BEBEBE" width="8.002" height="6.188"/>
</g>
<g>
	<defs>
		<path id="SVGID_3_" d="M1.215,4.913v3.825c0,1.696,2.219,2.347,3.338,2.347c0.111,0-1.39-0.84-1.39-2.293V4.913H1.215z"/>
	</defs>
	<use xlink:href="#SVGID_3_"  overflow="visible" fill="#BEBEBE"/>
	<clipPath id="SVGID_4_">
		<use xlink:href="#SVGID_3_"  overflow="visible"/>
	</clipPath>
	<rect x="1.215" y="4.913" clip-path="url(#SVGID_4_)" fill="#BEBEBE" width="3.45" height="6.172"/>
</g>
<g>
	<defs>
		<path id="SVGID_5_" d="M10.384,8.269c0.169,0.156-0.078,0.793,0.467,1.293c0.781,0.715,1.671,1.522,1.671,1.522h2.552l-3.694-3.35
			l-0.393-0.454L10.384,8.269z"/>
	</defs>
	<use xlink:href="#SVGID_5_"  overflow="visible" fill="#BEBEBE"/>
	<clipPath id="SVGID_6_">
		<use xlink:href="#SVGID_5_"  overflow="visible"/>
	</clipPath>
	
		<rect x="9.641" y="6.194" transform="matrix(0.766 0.6428 -0.6428 0.766 8.872 -6.0085)" clip-path="url(#SVGID_6_)" fill="#BEBEBE" width="6.096" height="5.977"/>
</g>
<g>
	<defs>
		<path id="SVGID_7_" d="M12.468,4.913c0,0-2.49,2.138-2.802,2.402c-0.311,0.264-0.371,0.785,0,1.151
			c0.373,0.364,0.823,0.733,1.185,1.097c0.042,0.04-0.15-0.452-0.095-0.888c0.054-0.417,0.359-0.755,0.439-0.832
			c0.574-0.544,3.986-2.93,3.986-2.93H12.468z"/>
	</defs>
	<use xlink:href="#SVGID_7_"  overflow="visible" fill="#BEBEBE"/>
	<clipPath id="SVGID_8_">
		<use xlink:href="#SVGID_7_"  overflow="visible"/>
	</clipPath>
	
		<rect x="8.516" y="3.755" transform="matrix(-0.866 0.5 -0.5 -0.866 26.4652 7.4245)" clip-path="url(#SVGID_8_)" fill="#BEBEBE" width="7.443" height="7.006"/>
</g>
</svg>
